<?xml version="1.0" encoding="UTF-8"?>
<svg width="20px" height="20px" viewBox="0 0 20 20" version="1.1" xmlns="http://www.w3.org/2000/svg" xmlns:xlink="http://www.w3.org/1999/xlink">
    <!-- Generator: Sketch 62 (91390) - https://sketch.com -->
    <title>Page 1</title>
    <desc>Created with Sketch.</desc>
    <g id="Page-1" stroke="none" stroke-width="1" fill="none" fill-rule="evenodd">
        <circle id="Oval" fill="#000000" cx="10" cy="10" r="10"></circle>
        <g id="noun_Middle-Finger_445535-(1)" transform="translate(5.000000, 3.000000)" fill="#FFFFFF" fill-rule="nonzero">
            <path d="M12.8462643,7.24613115 C12.8173768,7.21817204 12.7863228,7.19370781 12.7531022,7.17483541 L12.7545465,7.17343745 C11.6387675,6.49472987 10.1488954,6.62334181 9.17755378,7.56346714 L8.6669675,8.05764454 L8.6669675,5.96140971 C8.6669675,5.19253398 8.0169991,4.56345384 7.22259328,4.56345384 C6.85788879,4.59560682 6.2187532,4.67179542 5.77821906,4.76615744 L5.77821906,1.48305808 C5.77821906,0.786177076 5.29074276,0.135428619 4.58083283,0.0200972594 C3.67882113,-0.126688107 2.88947062,0.550621512 2.88947062,1.39778277 L2.88947062,5.63289008 C2.09867574,5.93414957 1.34687896,6.27455182 0.731575542,6.62264284 C0.281652973,6.8770708 0,7.33560033 0,7.83956342 L0,9.28365184 C0,11.8055642 2.13117416,14.031809 4.73682525,13.999656 C5.96309896,13.9842785 7.07310055,13.5089735 7.89783823,12.7477865 L7.89856041,12.7540773 L7.97872318,12.6764907 C7.98016756,12.6750928 7.98161193,12.6736948 7.98233412,12.6729958 L12.8455421,7.96537945 C13.0513654,7.76686972 13.0513654,7.44464089 12.8462643,7.24613115 Z" id="Path"></path>
        </g>
    </g>
</svg>
